
<svg width="300" height="300" viewBox="0 0 300 300" xmlns="http://www.w3.org/2000/svg">
  <path d="M150,50 C130,50 110,60 100,80 C90,100 90,120 100,140 C110,160 130,170 150,170 C170,170 190,160 200,140 C210,120 210,100 200,80 C190,60 170,50 150,50 Z M150,65 C165,65 180,73 188,88 C196,103 196,118 188,133 C180,148 165,155 150,155 C135,155 120,148 112,133 C104,118 104,103 112,88 C120,73 135,65 150,65 Z" fill="#FFD700" />
  <path d="M150,180 C120,180 100,200 100,220 C100,240 120,260 150,260 C180,260 200,240 200,220 C200,200 180,180 150,180 Z M150,195 C172,195 185,208 185,220 C185,232 172,245 150,245 C128,245 115,232 115,220 C115,208 128,195 150,195 Z" fill="#FFD700" />
  <path d="M150,20 C160,20 170,25 175,35 C180,45 180,55 175,65 C170,75 160,80 150,80 C140,80 130,75 125,65 C120,55 120,45 125,35 C130,25 140,20 150,20 Z" fill="#FFD700" />
  <path d="M220,100 C225,110 225,120 220,130 C215,140 205,145 195,145 C185,145 175,140 170,130 C165,120 165,110 170,100 C175,90 185,85 195,85 C205,85 215,90 220,100 Z" fill="#FFD700" />
  <path d="M80,100 C85,90 95,85 105,85 C115,85 125,90 130,100 C135,110 135,120 130,130 C125,140 115,145 105,145 C95,145 85,140 80,130 C75,120 75,110 80,100 Z" fill="#FFD700" />
</svg>
