
<svg width="100" height="100" viewBox="0 0 100 100" xmlns="http://www.w3.org/2000/svg">
  <g fill="#FFD700" opacity="0.75">
    <path d="M50,10 C60,25 70,10 50,30 C30,10 40,25 50,10" />
    <path d="M50,90 C60,75 70,90 50,70 C30,90 40,75 50,90" />
    <path d="M10,50 C25,60 10,70 30,50 C10,30 25,40 10,50" />
    <path d="M90,50 C75,60 90,70 70,50 C90,30 75,40 90,50" />
    <circle cx="50" cy="50" r="5" />
    <path d="M50,20 C55,35 65,40 50,45 C35,40 45,35 50,20" />
    <path d="M50,80 C55,65 65,60 50,55 C35,60 45,65 50,80" />
    <path d="M20,50 C35,45 40,35 45,50 C40,65 35,55 20,50" />
    <path d="M80,50 C65,45 60,35 55,50 C60,65 65,55 80,50" />
  </g>
</svg>
