
<svg width="100" height="100" viewBox="0 0 100 100" xmlns="http://www.w3.org/2000/svg">
  <g fill="none" fill-rule="evenodd">
    <g fill="#D2B48C" fill-opacity="0.1">
      <circle cx="50" cy="50" r="40" stroke="#D2B48C" stroke-width="0.5" />
      <circle cx="50" cy="50" r="30" stroke="#D2B48C" stroke-width="0.5" />
      <circle cx="50" cy="50" r="20" stroke="#D2B48C" stroke-width="0.5" />
      <circle cx="50" cy="50" r="10" stroke="#D2B48C" stroke-width="0.5" />
      <path d="M50 10 L50 90 M10 50 L90 50 M22 22 L78 78 M22 78 L78 22" stroke="#D2B48C" stroke-width="0.5" />
      <path d="M50 10 C 70 30, 70 70, 50 90" stroke="#D2B48C" stroke-width="0.5" fill="none"/>
      <path d="M50 10 C 30 30, 30 70, 50 90" stroke="#D2B48C" stroke-width="0.5" fill="none"/>
      <path d="M10 50 C 30 30, 70 30, 90 50" stroke="#D2B48C" stroke-width="0.5" fill="none"/>
      <path d="M10 50 C 30 70, 70 70, 90 50" stroke="#D2B48C" stroke-width="0.5" fill="none"/>
    </g>
  </g>
</svg>
