<svg xmlns="http://www.w3.org/2000/svg" width="1200" height="1200" fill="none">
  <rect width="1200" height="1200" fill="#FFF3E0" rx="3"/>
  <path fill="#8D6E63" d="M600 300c-110.46 0-200 89.54-200 200s89.54 200 200 200 200-89.54 200-200-89.54-200-200-200zm0 50c82.84 0 150 67.16 150 150s-67.16 150-150 150-150-67.16-150-150 67.16-150 150-150z"/>
  <path fill="#FF9800" d="M600 360c-77.32 0-140 62.68-140 140s62.68 140 140 140 140-62.68 140-140-62.68-140-140-140zm0 40c55.23 0 100 44.77 100 100s-44.77 100-100 100-100-44.77-100-100 44.77-100 100-100z"/>
  <path fill="#E65100" d="M600 440a60 60 0 100 120 60 60 0 000-120z"/>
  <path fill="#FFF3E0" d="M580 470h40v20h-40z"/>
  <path fill="#FFF3E0" d="M610 470v20h20v20h-20v20h-20v-20h-20v-20h20v-20z"/>
  <g opacity="0.5">
    <path fill="#8D6E63" d="M300 700h600v30H300z"/>
    <path fill="#8D6E63" d="M350 750h500v20H350z"/>
    <path fill="#8D6E63" d="M400 800h400v15H400z"/>
  </g>
  <path stroke="#E65100" stroke-width="10" stroke-dasharray="20,10" d="M200 200h800v800H200z"/>
  <path fill="#FF9800" d="M200 170h20v20h-20zM240 170h20v20h-20zM280 170h20v20h-20zM320 170h20v20h-20zM1160 170h20v20h-20zM1120 170h20v20h-20zM1080 170h20v20h-20zM1040 170h20v20h-20z"/>
  <path fill="#FF9800" d="M200 1010h20v20h-20zM240 1010h20v20h-20zM280 1010h20v20h-20zM320 1010h20v20h-20zM1160 1010h20v20h-20zM1120 1010h20v20h-20zM1080 1010h20v20h-20zM1040 1010h20v20h-20z"/>
  <path fill="#8D6E63" d="M170 200h20v20h-20zM170 240h20v20h-20zM170 280h20v20h-20zM170 320h20v20h-20zM170 960h20v20h-20zM170 920h20v20h-20zM170 880h20v20h-20zM170 840h20v20h-20z"/>
  <path fill="#8D6E63" d="M1010 200h20v20h-20zM1010 240h20v20h-20zM1010 280h20v20h-20zM1010 320h20v20h-20zM1010 960h20v20h-20zM1010 920h20v20h-20zM1010 880h20v20h-20zM1010 840h20v20h-20z"/>
</svg>