
<svg width="100" height="100" viewBox="0 0 100 100" xmlns="http://www.w3.org/2000/svg">
  <g fill="#B22222" opacity="0.6">
    <path d="M50,5 C55,15 65,20 50,30 C35,20 45,15 50,5" />
    <path d="M50,95 C55,85 65,80 50,70 C35,80 45,85 50,95" />
    <path d="M5,50 C15,55 20,65 30,50 C20,35 15,45 5,50" />
    <path d="M95,50 C85,55 80,65 70,50 C80,35 85,45 95,50" />
    
    <path d="M26,26 C32,32 38,32 32,38 C26,32 26,38 26,26" />
    <path d="M74,26 C68,32 62,32 68,38 C74,32 74,38 74,26" />
    <path d="M26,74 C32,68 38,68 32,62 C26,68 26,62 26,74" />
    <path d="M74,74 C68,68 62,68 68,62 C74,68 74,62 74,74" />
    
    <circle cx="50" cy="50" r="8" fill="#FFD700" opacity="0.8" />
    <circle cx="50" cy="50" r="4" fill="#800000" opacity="0.9" />
    
    <path d="M40,15 C45,25 55,25 60,15 C55,10 45,10 40,15" />
    <path d="M40,85 C45,75 55,75 60,85 C55,90 45,90 40,85" />
    <path d="M15,40 C25,45 25,55 15,60 C10,55 10,45 15,40" />
    <path d="M85,40 C75,45 75,55 85,60 C90,55 90,45 85,40" />
  </g>
</svg>
